<?xml version="1.0" standalone="no"?> <!DOCTYPE svg PUBLIC "-//W3C//DTD SVG 1.0//EN" "http://www.w3.org/TR/2001/REC-SVG-20010904/DTD/svg10.dtd" > <svg xmlns="http://www.w3.org/2000/svg" width="100%" height="100%">
<defs >
<font horiz-adv-x="375" ><font-face
    font-family="RetroSuperSkinny"
    units-per-em="1000"
    panose-1="0 0 4 0 0 0 0 0 0 0"
    ascent="774"
    descent="-226"
    alphabetic="0" />
<missing-glyph horiz-adv-x="500" d="M63 0V774H438V0H63ZM125 63H375V712H125V63Z" />
<glyph unicode=" " glyph-name="space" horiz-adv-x="242" />
<glyph unicode="!" glyph-name="exclam" horiz-adv-x="119" d="M20 -1Q-3 -1 -3 23Q-3 47 20 47Q45 47 45 23Q45 -1 20 -1ZM23 167H18L0 712H41L23 167Z" />
<glyph unicode="&amp;" glyph-name="ampersand" horiz-adv-x="610" d="M377 665Q346 717 269 717Q140 717 140 561Q140 492 160 460Q185 418 247 418H299L304 407H212Q139 407 94 358Q45 306 45 212Q45 88 112 30Q160 -11 226 -11Q286 -11 342 25Q411 69 411 142Q411
244 344 273L365 275Q444 229 444 156Q444 72 379 25Q319 -17 226 -17Q130 -17 69 35Q0 94 0 205Q0 307 73 367Q122 407 186 418Q154 427 125 460Q89 502 89 556Q89 645 154 691Q204 726 269 726Q330 726 385 691L377 665ZM533 311L512 285Q493 293 356 293Q240
293 201 281Q178 274 166 250L162 276Q182 295 217 299Q244 302 358 302Q491 302 533 311Z" />
<glyph unicode="(" glyph-name="parenleft" horiz-adv-x="186" d="M150 717Q93 717 71 642Q49 564 49 354Q49 146 71 69T150 -8Q153 -9 160 -10V-16H151Q0 -16 0 354Q0 726 151 726H160V719Q156 718 150 717Z" />
<glyph unicode=")" glyph-name="parenright" horiz-adv-x="163" d="M103 354Q103 563 80 642Q58 717 2 717Q0 717 -9 719V726H0Q151 726 151 354Q151 -16 0 -16H-9V-10Q0 -8 2 -8Q58 -8 80 69T103 354Z" />
<glyph unicode="*" glyph-name="asterisk" horiz-adv-x="139" d="M34 561V600L0 581L-5 590L30 609L-5 629L0 638L34 619V658H45V618L79 638L84 629L49 609L84 590L79 581L45 600V561H34Z" />
<glyph unicode="," glyph-name="comma" horiz-adv-x="186" d="M-10 -59L15 50H48L2 -62Q-1 -69 -6 -68Q-12 -67 -10 -59Z" />
<glyph unicode="-" glyph-name="hyphen" horiz-adv-x="139" d="M0 208V221H108V208H0Z" />
<glyph unicode="." glyph-name="period" horiz-adv-x="186" d="M24 -1Q0 -1 0 23Q0 47 24 47Q47 47 47 23Q47 -1 24 -1Z" />
<glyph unicode="/" glyph-name="slash" horiz-adv-x="395" d="M423 712H439L-6 0H-22L423 712Z" />
<glyph unicode="0" glyph-name="zero" horiz-adv-x="673" d="M303 -11Q184 -11 96 87Q0 194 0 361Q0 527 96 631Q183 726 303 726Q422 726 509 631Q605 527 605 361Q605 194 509 87Q421 -11 303 -11ZM51 361Q51 218 104 121Q170 -2 303 -2Q435 -2 502 121Q555
219 555 361Q555 503 502 598Q436 717 303 717Q170 717 104 598Q51 503 51 361Z" />
<glyph unicode="1" glyph-name="one" horiz-adv-x="106" d="M45 0H0V712H45V0Z" />
<glyph unicode="2" glyph-name="two" horiz-adv-x="466" d="M391 500Q391 336 210 186Q50 53 11 26H409V0H-33V9Q31 54 172 167Q346 321 346 510Q346 593 296 653Q242 719 153 719Q37 719 -5 646V678Q44 726 155 726Q262 726 328 658Q391 594 391 500Z" />
<glyph unicode="3" glyph-name="three" horiz-adv-x="449" d="M342 203Q342 294 290 349Q241 400 170 400Q159 400 137 403V413Q154 417 170 417Q220 417 257 463T295 564Q295 626 256 671Q214 719 149 719Q65 719 2 656V678Q76 726 149 726Q242 726 298 671Q344
624 344 564Q344 517 306 471Q262 419 195 410V409Q251 403 291 382Q387 331 387 214Q387 121 319 57Q247 -11 139 -11Q28 -11 -33 57V89Q22 -4 137 -4Q227 -4 286 61Q342 122 342 203Z" />
<glyph unicode="4" glyph-name="four" horiz-adv-x="524" d="M360 646V195H461V177H360V0H316V177H-37L296 670Q311 692 322 712H342Q336 705 310 670L-12 195H316V632Q338 632 360 646Z" />
<glyph unicode="5" glyph-name="five" horiz-adv-x="477" d="M181 439Q63 439 29 367L17 384Q26 404 35 458Q44 519 44 580V712H357L344 693H52V580Q52 468 35 398Q82 448 184 448Q261 448 318 410Q398 355 398 240Q398 125 330 58T149 -10Q38 -10 -22 64V98Q31
-3 147 -3Q241 -3 296 61T352 229Q352 328 300 386Q253 439 181 439Z" />
<glyph unicode="6" glyph-name="six" horiz-adv-x="559" d="M243 -10Q148 -10 78 74Q0 169 0 328Q0 532 99 640Q179 726 293 726Q391 726 444 689L440 661Q400 719 296 719Q50 719 50 337Q50 173 108 81Q160 -2 241 -2Q334 -2 390 68T446 252Q446 349 395 417T274
486Q132 486 85 382L86 416Q155 497 278 497Q351 497 411 450Q491 386 491 264Q491 138 423 64T243 -10Z" />
<glyph unicode="7" glyph-name="seven" horiz-adv-x="422" d="M-16 712H381V709Q362 686 317 602Q259 493 220 385Q135 149 107 0H51Q66 47 87 103Q135 237 202 392Q242 486 352 693H-25L-16 712Z" />
<glyph unicode="8" glyph-name="eight" horiz-adv-x="496" d="M442 197Q442 113 389 55Q329 -11 225 -11Q127 -11 64 47T0 197Q0 308 95 360Q134 382 189 391V393Q35 412 35 560Q35 622 75 668Q125 726 217 726Q309 726 363 668Q408 620 408 560Q408 492 367 447T254
393V391Q309 383 348 362Q442 310 442 197ZM222 396Q277 396 318 437Q363 483 363 560Q363 622 324 669Q281 719 217 719Q153 719 114 669Q79 623 79 560Q79 477 125 433Q164 396 222 396ZM225 -4Q312 -4 357 58Q396 112 396 198Q396 289 343 341Q295 388 222 388Q149
388 101 339Q48 285 48 193Q48 118 93 60Q144 -4 225 -4Z" />
<glyph unicode="9" glyph-name="nine" horiz-adv-x="558" d="M248 729Q343 729 413 646Q491 551 491 391Q491 186 392 80Q311 -7 197 -7Q100 -7 46 30L50 58Q91 0 195 0Q440 0 440 382Q440 546 383 638Q330 721 250 721Q157 721 101 651T45 468Q45 371 96 302T217
233Q359 233 406 337L405 303Q337 223 213 223Q139 223 80 270Q0 333 0 455Q0 581 68 655T248 729Z" />
<glyph unicode=":" glyph-name="colon" horiz-adv-x="87" d="M24 -1Q0 -1 0 23Q0 47 24 47Q48 47 48 23Q48 -1 24 -1ZM24 227Q0 227 0 251Q0 275 24 275Q48 275 48 251Q48 227 24 227Z" />
<glyph unicode=";" glyph-name="semicolon" horiz-adv-x="87" d="M-11 -59L15 50H46L1 -62Q-2 -69 -8 -68Q-14 -67 -11 -59ZM38 227Q14 227 14 251Q14 275 38 275Q61 275 61 251Q61 227 38 227Z" />
<glyph unicode="?" glyph-name="question" horiz-adv-x="404" d="M106 -1Q82 -1 82 23Q82 47 106 47Q130 47 130 23Q130 -1 106 -1ZM155 717Q61 717 13 644L0 669Q61 726 155 726Q238 726 293 679Q356 625 356 531Q356 460 308 410Q291 392 216 339Q91 251 91
182Q91 162 105 129L94 123Q78 153 78 175Q78 227 118 273Q133 291 219 365Q272 411 289 441Q308 477 308 538Q308 601 269 655Q225 717 155 717Z" />
<glyph unicode="A" glyph-name="A" horiz-adv-x="604" d="M391 318H130L15 0H0L263 726H272L563 0H517L391 318ZM135 331H385L257 658H253L135 331Z" />
<glyph unicode="B" glyph-name="B" horiz-adv-x="439" d="M0 712H190Q256 712 298 679Q350 638 350 556Q350 444 223 391L208 388L222 386Q409 359 409 193Q409 106 342 49Q285 0 222 0H0V712ZM45 699V13H222Q279 13 318 63T357 195Q357 380 167 380H134V389H167Q217
389 255 431Q298 478 298 556Q298 699 195 699H45Z" />
<glyph unicode="C" glyph-name="C" horiz-adv-x="597" d="M0 370Q0 535 103 636Q195 726 323 726Q444 726 528 665V632Q470 717 323 717Q181 717 109 602Q50 509 50 370Q50 227 109 126Q182 -2 323 -2Q470 -2 536 106V81Q444 -11 323 -11Q198 -11 103 92Q0 203 0 370Z" />
<glyph unicode="D" glyph-name="D" horiz-adv-x="607" d="M210 712Q352 712 438 643Q548 555 548 367Q548 188 459 89Q378 0 251 0H0V712H210ZM498 367Q498 501 435 592Q359 699 215 699H45V13H235Q376 13 445 131Q498 224 498 367Z" />
<glyph unicode="E" glyph-name="E" horiz-adv-x="360" d="M45 700V436H331V424H45V13H314V0H0V712H298V700H45Z" />
<glyph unicode="F" glyph-name="F" horiz-adv-x="322" d="M45 700V436H287V424H45V0H0V712H283V700H45Z" />
<glyph unicode="G" glyph-name="G" horiz-adv-x="597" d="M502 295H549V89Q508 62 468 35Q393 -11 323 -11Q189 -11 103 73Q0 174 0 370Q0 535 103 636Q195 726 323 726Q444 726 528 665V632Q470 717 323 717Q181 717 109 602Q50 509 50 370Q50 212 109 115Q179
-2 323 -2Q433 -2 502 89V295Z" />
<glyph unicode="H" glyph-name="H" horiz-adv-x="481" d="M45 712V434H383V712H429V0H383V422H45V0H0V712H45Z" />
<glyph unicode="I" glyph-name="I" horiz-adv-x="109" d="M45 0H0V712H45V0Z" />
<glyph unicode="J" glyph-name="J" horiz-adv-x="104" d="M-65 -88Q-32 -88 -14 -56Q0 -31 0 0V712H45V0Q45 -37 13 -69T-63 -101Q-77 -101 -86 -97V-83Q-72 -88 -65 -88Z" />
<glyph unicode="K" glyph-name="K" horiz-adv-x="448" d="M45 0H0V712H45V0ZM436 0H378L75 336L352 712H367L107 359L436 0Z" />
<glyph unicode="L" glyph-name="L" horiz-adv-x="327" d="M0 0V712H45V13H315V0H0Z" />
<glyph unicode="M" glyph-name="M" horiz-adv-x="588" d="M490 0V573L279 -11H276L12 573V0H0V726H3L291 64L531 726H535V0H490Z" />
<glyph unicode="N" glyph-name="N" horiz-adv-x="495" d="M431 712H443V-11H437L13 627V0H0V726H4L431 87V712Z" />
<glyph unicode="O" glyph-name="O" horiz-adv-x="727" d="M345 -11Q209 -11 109 87Q0 194 0 361Q0 527 109 631Q209 726 345 726Q481 726 580 631Q689 527 689 361Q689 194 580 87Q480 -11 345 -11ZM54 361Q54 220 116 121Q194 -2 345 -2Q496 -2 574 121Q636 220
636 361Q636 502 574 598Q496 717 345 717Q194 717 116 598Q54 502 54 361Z" />
<glyph unicode="P" glyph-name="P" horiz-adv-x="398" d="M45 0H0V712H190Q280 712 330 659T381 516Q381 413 295 353Q230 308 164 308H93V317H169Q224 317 270 359Q329 412 329 509Q329 609 297 654T195 699H45V0Z" />
<glyph unicode="Q" glyph-name="Q" horiz-adv-x="732" d="M689 361Q689 244 633 154Q582 71 496 27Q529 -5 562 -37T621 -69Q646 -69 664 -45L672 -52Q646 -77 621 -77Q589 -77 565 -66Q525 -47 464 12Q404 -11 345 -11Q209 -11 109 87Q0 194 0 361Q0 528 109
631Q208 726 345 726Q481 726 580 631Q689 527 689 361ZM345 -2Q404 -2 457 18Q416 59 408 65Q374 92 347 92Q295 92 272 58L264 64Q290 102 348 102Q391 102 424 85Q448 71 487 34Q563 80 602 179Q635 262 635 361Q635 502 573 598Q496 717 345 717Q193 717 115
598Q53 502 53 361Q53 219 115 121Q193 -2 345 -2Z" />
<glyph unicode="R" glyph-name="R" horiz-adv-x="417" d="M374 519Q374 415 297 362Q239 323 164 323L413 0H348L93 332H169Q225 332 266 368Q321 416 321 512Q321 699 173 699H45V0H0V712H168Q260 712 317 660T374 519Z" />
<glyph unicode="S" glyph-name="S" horiz-adv-x="431" d="M31 545Q31 436 197 392Q290 367 334 326Q387 275 387 184Q387 93 319 36Q257 -17 175 -17Q82 -17 0 57V87Q72 -7 172 -7Q245 -7 303 37Q372 89 372 177Q372 265 318 300Q296 314 182 348Q15 397 15 538Q15
620 74 674Q130 726 208 726Q302 726 356 682L346 658Q311 715 212 715Q145 715 91 670Q31 620 31 545Z" />
<glyph unicode="T" glyph-name="T" horiz-adv-x="440" d="M433 700H240V0H195V700H0V712H433V700Z" />
<glyph unicode="U" glyph-name="U" horiz-adv-x="458" d="M424 712V218Q424 124 385 66Q333 -11 218 -11Q103 -11 45 49Q0 95 0 158V712H45V158Q45 93 96 47T218 0Q299 0 350 45Q412 101 412 218V712H424Z" />
<glyph unicode="V" glyph-name="V" horiz-adv-x="543" d="M519 667L280 -17H276L0 712H50L294 64L506 665Q513 686 515 712H536Q531 699 519 667Z" />
<glyph unicode="W" glyph-name="W" horiz-adv-x="786" d="M400 726H408L606 96L748 665Q755 685 757 712H778Q773 702 761 667L594 -17L392 621H389L233 -17L0 712H49L245 96L400 726Z" />
<glyph unicode="X" glyph-name="X" horiz-adv-x="497" d="M31 45L404 665Q416 685 426 712H451Q444 702 429 678Q425 673 422 667L49 47Q36 26 27 0H1Q10 12 31 45ZM495 0H438L0 712H57L495 0Z" />
<glyph unicode="Y" glyph-name="Y" horiz-adv-x="482" d="M230 288L445 665Q457 687 467 712L492 713Q488 706 478 692Q472 681 464 667L248 290L230 288ZM265 335L263 324V0H222V317L0 712H54L265 335Z" />
<glyph unicode="Z" glyph-name="Z" horiz-adv-x="468" d="M459 712L64 13H457V0H0L394 700H66V712H459Z" />
<glyph unicode="a" glyph-name="a" horiz-adv-x="434" d="M203 -4Q237 -4 274 19Q317 46 334 89V373Q334 549 193 549Q104 549 52 498L53 526Q105 556 194 556Q278 556 328 509T379 386V0H334V57Q286 -11 202 -11Q97 -11 45 43Q0 91 0 172Q0 252 60 304Q117 352
197 352Q261 352 288 340V317Q265 346 197 346Q138 346 99 312Q48 267 48 173Q48 82 94 37Q134 -4 203 -4Z" />
<glyph unicode="b" glyph-name="b" horiz-adv-x="485" d="M45 774V495Q97 556 201 556Q289 556 359 481Q439 394 439 258Q439 124 350 49Q279 -11 191 -11Q110 -11 45 36V0H0V774H45ZM45 465V74Q86 0 191 0Q268 0 324 64Q390 140 390 280Q390 413 315 488Q259
545 199 545Q156 545 116 528Q64 507 45 465Z" />
<glyph unicode="c" glyph-name="c" horiz-adv-x="469" d="M420 79V52Q344 -11 258 -11Q152 -11 81 58Q0 137 0 276Q0 411 84 490Q155 556 247 556Q307 556 355 531Q384 513 413 496V470Q343 545 249 545Q185 545 129 497Q49 430 49 298Q49 151 107 73Q161 -1 258
-1Q350 -1 420 79Z" />
<glyph unicode="d" glyph-name="d" horiz-adv-x="504" d="M247 556Q342 556 403 509V774H448V0H403V45Q332 -11 258 -11Q172 -11 94 59Q0 142 0 276Q0 411 84 490Q155 556 247 556ZM258 0Q354 0 403 84V477Q363 545 249 545Q185 545 128 497Q48 430 48 298Q48
158 119 73Q181 0 258 0Z" />
<glyph unicode="e" glyph-name="e" horiz-adv-x="514" d="M103 385V396H425Q425 476 357 516Q308 545 248 545Q185 545 128 497Q48 429 48 295Q48 148 113 71Q173 0 276 0Q386 0 455 96L460 75Q379 -11 276 -11Q147 -11 71 76Q0 156 0 273Q0 411 84 489Q157 556
260 556Q348 556 415 497Q477 443 477 385H103Z" />
<glyph unicode="f" glyph-name="f" horiz-adv-x="242" d="M187 531H97V0H52V531H0V538H52V624Q52 682 90 724T186 766Q200 766 219 762L213 750Q197 759 185 759Q161 759 133 736Q97 707 97 661V538H187V531Z" />
<glyph unicode="g" glyph-name="g" horiz-adv-x="503" d="M246 556Q347 556 403 494V538H447V-32Q447 -100 393 -158Q330 -226 228 -226Q117 -226 27 -156L28 -132Q111 -219 227 -219Q314 -219 362 -162Q403 -113 403 -43V39Q335 -17 257 -17Q171 -17 93 53Q0
137 0 273Q0 410 84 489Q155 556 246 556ZM257 -7Q355 -7 403 79V449Q384 502 332 527Q293 545 248 545Q184 545 128 497Q48 429 48 295Q48 153 119 67Q180 -7 257 -7Z" />
<glyph unicode="h" glyph-name="h" horiz-adv-x="463" d="M203 556Q96 556 45 470V0H0V774H45V505Q107 562 205 562Q306 562 361 506Q407 459 407 392V0H361V403Q361 556 203 556Z" />
<glyph unicode="i" glyph-name="i" horiz-adv-x="97" d="M45 0H0V538H45V0ZM22 666Q-1 666 -1 689Q-1 712 22 712Q45 712 45 689Q45 666 22 666Z" />
<glyph unicode="j" glyph-name="j" horiz-adv-x="97" d="M-75 -202Q0 -202 0 -104V538H45V-76Q45 -139 5 -177Q-30 -209 -75 -209Q-85 -209 -100 -206V-195Q-92 -202 -75 -202ZM22 666Q-1 666 -1 689Q-1 712 22 712Q45 712 45 689Q45 666 22 666Z" />
<glyph unicode="k" glyph-name="k" horiz-adv-x="444" d="M45 0H0V774H45V0ZM378 0L58 266L327 538H348L98 287L440 0H378Z" />
<glyph unicode="l" glyph-name="l" horiz-adv-x="104" d="M45 0H0V774H45V0Z" />
<glyph unicode="m" glyph-name="m" horiz-adv-x="768" d="M203 550Q102 550 45 451V0H0V538H45V487Q114 556 205 556Q284 556 324 526Q357 502 377 447Q433 556 540 556Q632 556 682 500Q723 453 723 386V0H682V396Q682 550 538 550Q461 550 420 494Q388 449 388
386V0H348V396Q348 550 203 550Z" />
<glyph unicode="n" glyph-name="n" horiz-adv-x="462" d="M203 556Q96 556 45 470V0H0V538H45V504Q108 562 205 562Q307 562 362 506Q407 459 407 392V0H361V403Q361 556 203 556Z" />
<glyph unicode="o" glyph-name="o" horiz-adv-x="558" d="M258 556Q352 556 428 487Q517 405 517 268Q517 133 424 51Q346 -17 258 -17Q170 -17 93 51Q0 133 0 268Q0 405 89 487Q164 556 258 556ZM468 268Q468 403 384 483Q320 545 258 545Q197 545 133 483Q49
403 49 268Q49 128 119 54Q177 -7 258 -7Q339 -7 397 54Q468 129 468 268Z" />
<glyph unicode="p" glyph-name="p" horiz-adv-x="500" d="M191 -17Q112 -17 45 39V-196H0V538H45V495Q103 556 201 556Q293 556 364 489Q448 410 448 273Q448 137 355 53Q277 -17 191 -17ZM199 545Q155 545 117 528Q65 504 45 452V77Q91 -7 191 -7Q268 -7 329
67Q400 153 400 295Q400 429 320 497Q264 545 199 545Z" />
<glyph unicode="q" glyph-name="q" horiz-adv-x="503" d="M247 556Q345 556 403 495V538H448V-196H403V39Q336 -17 258 -17Q171 -17 94 53Q0 137 0 273Q0 410 84 489Q155 556 247 556ZM258 -7Q354 -7 403 78V451Q384 503 331 528Q294 545 249 545Q185 545 128
497Q48 429 48 295Q48 153 119 67Q181 -7 258 -7Z" />
<glyph unicode="r" glyph-name="r" horiz-adv-x="195" d="M92 499Q60 475 45 427V0H0V538H45V463Q59 484 88 505Q132 538 175 538V525Q168 528 159 528Q130 528 92 499Z" />
<glyph unicode="s" glyph-name="s" horiz-adv-x="380" d="M310 526L309 500Q278 523 259 530Q224 545 175 545Q117 545 67 508Q14 468 14 417Q14 366 51 340Q84 317 166 304Q344 275 344 157Q344 87 291 38T160 -11Q63 -11 -7 45L2 56Q84 -3 160 -3Q216 -3 268
36Q328 80 328 142Q328 200 268 228Q254 234 160 258Q78 279 56 292Q-2 327 -2 405Q-2 483 72 526Q125 556 175 556Q234 556 276 538Q285 534 310 526Z" />
<glyph unicode="t" glyph-name="t" horiz-adv-x="235" d="M202 527H90V94Q90 54 106 28Q125 -4 162 -4Q187 -4 212 12V0Q182 -11 161 -11Q114 -11 83 18Q45 53 45 122V527H-11L-4 538H45V650L90 682V538H209L202 527Z" />
<glyph unicode="u" glyph-name="u" horiz-adv-x="468" d="M203 -4Q313 -4 361 82V538H407V0H361V47Q297 -11 201 -11Q100 -11 45 46Q0 93 0 160V538H45V149Q45 -4 203 -4Z" />
<glyph unicode="v" glyph-name="v" horiz-adv-x="480" d="M240 50H242L421 496Q430 517 435 538H452Q447 531 431 496L225 -17H223L0 538H46L240 50Z" />
<glyph unicode="w" glyph-name="w" horiz-adv-x="801" d="M383 468H380L206 -15H204L0 538H50L222 58H225L400 556H403L580 58H582L743 496Q751 518 756 538H772Q768 531 753 496L563 -15H561L383 468Z" />
<glyph unicode="x" glyph-name="x" horiz-adv-x="466" d="M341 497L205 304L416 0H366L180 268L21 43Q6 21 -6 0H-25Q-19 7 8 43L173 278L-8 538H43L198 314L327 497Q342 519 353 538H374Q367 531 341 497Z" />
<glyph unicode="y" glyph-name="y" horiz-adv-x="475" d="M145 -202H135L210 -13L-11 538H36L231 45H234L413 496Q422 518 427 538H444Q440 532 424 496L145 -202Z" />
<glyph unicode="z" glyph-name="z" horiz-adv-x="431" d="M396 538L22 9H392L385 0H-37L337 530H26V538H396Z" />
</font>
</defs>
</svg>
